<svg xmlns="http://www.w3.org/2000/svg" xmlns:xlink="http://www.w3.org/1999/xlink" xmlns:svgjs="http://svgjs.com/svgjs" width="512" height="512"><svg width="512" height="512" viewBox="0 0 512 512" fill="none" xmlns="http://www.w3.org/2000/svg"><path fill-rule="evenodd" clip-rule="evenodd" d="M486.818 82.513c.783 2.449 1.542 4.824 2.282 7.087 22 66.6 23.3 124.4 22.8 155.2-.057 3.533-.108 7.023-.159 10.469-1.022 69.312-1.788 121.219-40.941 165.231-20 22.5-43.8 37.6-52.4 42.5-31.3 17.9-59.4 23-84.3 27.5-31 5.6-54.9 5.6-78.1 5.6-23.2 0-47.1 0-78.1-5.6C153 486 125 480.9 93.6 463c-8.6-4.9-32.4-20-52.4-42.4C2.2 376.76 1.378 324.997.285 256.167.226 252.462.166 248.706.1 244.9-.4 214 .9 156.2 23 89.4c.762-2.324 1.546-4.77 2.355-7.293C33.351 57.158 43.818 24.5 60.8 24.5c19.5 0 36.6 47.5 42.8 65.8 3.663 10.117 13.64 36.133 16.662 44.012l.838 2.188.345-.174c.891-.452 2.42-1.227 4.255-1.926 1.647-.629 3.213-1.222 4.621-1.755 3.293-1.247 5.719-2.165 6.279-2.445a324.72 324.72 0 0 1 6.904-2.189c3.148-.967 4.701-1.444 7.696-2.811.285-.134.581-.268.886-.406 1.518-.687 3.266-1.479 5.014-2.894.19-.175.431-.389.716-.642 1.667-1.477 4.839-4.289 8.084-8.558 4.459-6.688 7.469-14.824 9.887-21.359.945-2.551 1.798-4.86 2.613-6.74 3.3-7.1 10-16.3 25.5-24.3-.8 2.5-1.7 7.5-.4 13.4 1.7 8.4 7.1 13.8 9.2 15.5 2.5-6.3 7.1-15 13.8-24.7 18.3-24.7 40.9-35.6 47.2-38.5l.686-.294c9.757-4.175 27.46-11.748 50.314-9.307 13.7 1.7 24.2 5.8 30.9 9.2-6.3.9-18 3.4-27.2 12.6-17.6 17.2-18.4 47.8-5.9 64.5 9.578 12.971 28.315 19.272 39.624 23.074l.076.026c.723.383 2.258.892 4.43 1.612 2.938.973 7.041 2.333 11.87 4.288 3.7 1.2 7.9 2.9 12.5 5 .9-2.1 13.4-34.6 17.5-46.2 6.2-18.4 23.3-65.8 42.8-65.8 17.034 0 27.513 32.775 35.518 57.813zM192.8 374.1c8.3-8.4 9.6-19.2 10.4-29.6.9-5.9 4.6-43.7-24.2-69.8-5.8-5.5-26.2-24.2-54-19.2-24.5 4.1-44.9 24.9-48.2 49.5-3.07 23.999 11.772 42.201 17.883 49.696.459.562.868 1.064 1.217 1.504 14.041 15.676 31.042 20.068 40.862 22.605l1.138.295 1.552.363c13.069 3.065 38.558 9.043 53.348-5.363zm182.197 4.641c9.804-2.537 26.991-6.986 41.003-22.641.349-.442.763-.95 1.228-1.522 6.061-7.45 20.929-25.725 17.772-49.778-3.3-24.5-23.7-45.3-48.2-49.5-27.8-5-48.2 13.8-54 19.2-28.7 26.2-24.9 64.1-24.1 69.9.8 10.4 2.1 21.3 10.4 29.6 14.79 14.406 40.279 8.428 53.348 5.363L374 379l.997-.259z" fill="#9570FA"/></svg><style>@media (prefers-color-scheme:light){:root{filter:none}}</style></svg>